<svg width="32" height="32" viewBox="0 0 24 24" fill="none" xmlns="http://www.w3.org/2000/svg">
  <path d="M8 2v3" stroke="#87a96b" stroke-width="2" stroke-linecap="round" stroke-linejoin="round"/>
  <path d="M16 2v3" stroke="#87a96b" stroke-width="2" stroke-linecap="round" stroke-linejoin="round"/>
  <path d="M3 10h18" stroke="#87a96b" stroke-width="2" stroke-linecap="round" stroke-linejoin="round"/>
  <path d="M5 4h14a2 2 0 0 1 2 2v14a2 2 0 0 1-2 2H5a2 2 0 0 1-2-2V6a2 2 0 0 1 2-2z" stroke="#87a96b" stroke-width="2" stroke-linecap="round" stroke-linejoin="round"/>
  <path d="M8 14h.01" stroke="#87a96b" stroke-width="2" stroke-linecap="round" stroke-linejoin="round"/>
  <path d="M12 14h.01" stroke="#87a96b" stroke-width="2" stroke-linecap="round" stroke-linejoin="round"/>
  <path d="M16 14h.01" stroke="#87a96b" stroke-width="2" stroke-linecap="round" stroke-linejoin="round"/>
  <path d="M8 18h.01" stroke="#87a96b" stroke-width="2" stroke-linecap="round" stroke-linejoin="round"/>
  <path d="M12 18h.01" stroke="#87a96b" stroke-width="2" stroke-linecap="round" stroke-linejoin="round"/>
  <path d="M16 18h.01" stroke="#87a96b" stroke-width="2" stroke-linecap="round" stroke-linejoin="round"/>
</svg>
